# xmcd CD database file
# Copyright (C) 1995-1998 Ti Kan
#
# Track frame offsets:
#	150
#	13078
#	23161
#	36260
#	50125
#	63207
#	76145
#	88634
#	102268
#	114706
#	127944
#	139350
#	152297
#	165332
#	178629
#	191851
#	202853
#	217344
#	228184
#	241111
#	253889
#	267156
#	282139
#	296192
#
# Disc length: 4115 seconds
#
# Revision: 1
# Processed by: cddbd v1.5.2PL0 Copyright (c) Steve Scherf et al.
# Submitted via: CDex 1.30Release
#
DISCID=54101118
DTITLE=Muddy Waters - Natural Born Lover
DYEAR=2009
DGENRE=Blues
TTITLE0=I'm Your Hoochie Coochie Man 1954
TTITLE1=She's So Pretty 1954
TTITLE2=Just Make Love To Me 1954
TTITLE3=I'm Ready 1954
TTITLE4=I Dont't Know Why 1954
TTITLE5=I'm A Natural Lover 1954
TTITLE6=Ooh Wee 1954
TTITLE7=Young Fashioned Ways 1955
TTITLE8=I Want To Be Loved 1955
TTITLE9=Mannish Boy 1955
TTITLE10=Sugar Sweet 1955
TTITLE11=Trouble No More 1955
TTITLE12=Forty Days And Forty Nights 1956
TTITLE13=All Aboard 1956
TTITLE14=Don't Go No Father 1956
TTITLE15=Diamonds At Your Feets 1956
TTITLE16=Rock Me 1956
TTITLE17=Look What You've Done 1957
TTITLE18=Got My Mojo Working 1957
TTITLE19=Good News 1957
TTITLE20=I Won't Go On 1958
TTITLE21=She's 19 Years Old 1958
TTITLE22=Close To You 1958
TTITLE23=Walkin' Thru The Park 1958
EXTD=YEAR: 2009 ID3G:   0
EXTT0=
EXTT1=
EXTT2=
EXTT3=
EXTT4=
EXTT5=
EXTT6=
EXTT7=
EXTT8=
EXTT9=
EXTT10=
EXTT11=
EXTT12=
EXTT13=
EXTT14=
EXTT15=
EXTT16=
EXTT17=
EXTT18=
EXTT19=
EXTT20=
EXTT21=
EXTT22=
EXTT23=
PLAYORDER=
